HIERARCHY
ROOT Hips
{
	OFFSET 0.00000 0.00000 0.00000
	CHANNELS 6 Xposition Yposition Zposition Zrotation Yrotation Xrotation 
	JOINT LHipJoint
	{
		OFFSET 0 0 0
		CHANNELS 3 Zrotation Yrotation Xrotation
		JOINT LeftUpLeg
		{
			OFFSET 1.56857 -1.73443 1.15205
			CHANNELS 3 Zrotation Yrotation Xrotation
			JOINT LeftLeg
			{
				OFFSET 2.39362 -6.57643 0.00000
				CHANNELS 3 Zrotation Yrotation Xrotation
				JOINT LeftFoot
				{
					OFFSET 2.50952 -6.89485 0.00000
					CHANNELS 3 Zrotation Yrotation Xrotation
					JOINT LeftToeBase
					{
						OFFSET 0.17171 -0.47178 1.88682
						CHANNELS 3 Zrotation Yrotation Xrotation
						End Site
						{
							OFFSET 0.00000 -0.00000 0.98146
						}
					}
				}
			}
		}
	}
	JOINT RHipJoint
	{
		OFFSET 0 0 0
		CHANNELS 3 Zrotation Yrotation Xrotation
		JOINT RightUpLeg
		{
			OFFSET -1.28153 -1.73443 1.15205
			CHANNELS 3 Zrotation Yrotation Xrotation
			JOINT RightLeg
			{
				OFFSET -2.26861 -6.23296 0.00000
				CHANNELS 3 Zrotation Yrotation Xrotation
				JOINT RightFoot
				{
					OFFSET -2.54143 -6.98254 0.00000
					CHANNELS 3 Zrotation Yrotation Xrotation
					JOINT RightToeBase
					{
						OFFSET -0.23309 -0.64041 1.93119
						CHANNELS 3 Zrotation Yrotation Xrotation
						End Site
						{
							OFFSET -0.00000 -0.00000 1.02013
						}
					}
				}
			}
		}
	}
	JOINT LowerBack
	{
		OFFSET 0 0 0
		CHANNELS 3 Zrotation Yrotation Xrotation
		JOINT Spine
		{
			OFFSET -0.07096 2.10460 -0.27878
			CHANNELS 3 Zrotation Yrotation Xrotation
			JOINT Spine1
			{
				OFFSET -0.00826 2.13662 -0.08279
				CHANNELS 3 Zrotation Yrotation Xrotation
				JOINT Neck
				{
					OFFSET 0 0 0
					CHANNELS 3 Zrotation Yrotation Xrotation
					JOINT Neck1
					{
						OFFSET 0.03239 1.77799 0.24435
						CHANNELS 3 Zrotation Yrotation Xrotation
						JOINT Head
						{
							OFFSET 0.01026 1.74194 -0.49664
							CHANNELS 3 Zrotation Yrotation Xrotation
							End Site
							{
								OFFSET 0.00170 1.83057 -0.19653
							}
						}
					}
				}
				JOINT LeftShoulder
				{
					OFFSET 0 0 0
					CHANNELS 3 Zrotation Yrotation Xrotation
					JOINT LeftArm
					{
						OFFSET 3.19178 1.35907 -0.31412
						CHANNELS 3 Zrotation Yrotation Xrotation
						JOINT LeftForeArm
						{
							OFFSET 4.85247 -0.00000 -0.00000
							CHANNELS 3 Zrotation Yrotation Xrotation
							JOINT LeftHand
							{
								OFFSET 3.55584 -0.00000 0.00000
								CHANNELS 3 Zrotation Yrotation Xrotation
								JOINT LeftFingerBase
								{
									OFFSET 0 0 0
									CHANNELS 3 Zrotation Yrotation Xrotation
									JOINT LeftHandIndex1
									{
										OFFSET 0.69320 -0.00000 0.00000
										CHANNELS 3 Zrotation Yrotation Xrotation
										End Site
										{
											OFFSET 0.55888 -0.00000 0.00000
										}
									}
								}
								JOINT LThumb
								{
									OFFSET 0 0 0
									CHANNELS 3 Zrotation Yrotation Xrotation
									End Site
									{
										OFFSET 0.56741 -0.00000 0.56741
									}
								}
							}
						}
					}
				}
				JOINT RightShoulder
				{
					OFFSET 0 0 0
					CHANNELS 3 Zrotation Yrotation Xrotation
					JOINT RightArm
					{
						OFFSET -3.28999 1.24191 -0.26899
						CHANNELS 3 Zrotation Yrotation Xrotation
						JOINT RightForeArm
						{
							OFFSET -4.64462 -0.00000 0.00000
							CHANNELS 3 Zrotation Yrotation Xrotation
							JOINT RightHand
							{
								OFFSET -3.40703 -0.00000 0.00000
								CHANNELS 3 Zrotation Yrotation Xrotation
								JOINT RightFingerBase
								{
									OFFSET 0 0 0
									CHANNELS 3 Zrotation Yrotation Xrotation
									JOINT RightHandIndex1
									{
										OFFSET -0.61958 -0.00000 0.00000
										CHANNELS 3 Zrotation Yrotation Xrotation
										End Site
										{
											OFFSET -0.49952 -0.00000 0.00000
										}
									}
								}
								JOINT RThumb
								{
									OFFSET 0 0 0
									CHANNELS 3 Zrotation Yrotation Xrotation
									End Site
									{
										OFFSET -0.50715 -0.00000 0.50715
									}
								}
							}
						}
					}
				}
			}
		}
	}
}
MOTION
Frames: 11
Frame Time: .0083333
-28.3246 17.1103 1.2535 0 0 0 0 0 0 -21 0 0 0 0 0 0 0 0 0 0 0 0 0 0 21 0 0 0 0 0 0 0 0 0 0 0 0 0 0 0 0 0 0 0 0 0 0 -16 0 0 21 0 0 11 0 0 0 -8 0 0 0 0 0 0 0 0 0 0 0 0 0 0 0 0 0 0 0 0 8 0 0 0 0 0 0 0 0 0 0 0 0 0 0 0 0 0
-28.3246 17.1103 1.2535 45.6819 84.0787 45.5888 0.0000 0.0000 0.0000 -18.9479 5.8507 11.7908 0.0208 -0.9318 -2.5611 0.3297 5.7867 -14.5123 0.0894 -1.9288 -5.3090 0.0000 0.0000 0.0000 7.9460 -8.0166 8.6070 -0.0233 -0.9864 2.7115 -0.8068 2.1334 -16.3822 -0.2185 -3.0090 8.3039 -5.1725 1.5437 5.2842 -0.6148 1.7642 0.6973 2.1360 0.9322 -2.3799 2.4800 2.2249 -21.8487 -1.9022 2.8066 20.2533 -0.6588 1.2815 10.1302 0.0000 -0.0000 0.0000 -86.9347 -0.4386 45.9288 13.1009 -21.4349 -2.4901 -0.0000 -0.0000 10.6066 14.4790 -25.5373 -6.3521 -7.1250 0.0000 -0.0000 -9.2147 4.0056 8.6634 0.0000 -0.0000 0.0000 87.0118 -0.9346 38.9958 -16.1662 25.7454 -3.7178 0.0000 0.0000 4.2808 -12.9344 -30.3478 6.6188 7.1250 -0.0000 -0.0000 21.1145 -59.7130 -7.7944
-28.3231 17.1107 1.2506 45.7911 84.0438 45.7194 0.0000 0.0000 0.0000 -19.1744 5.4716 11.9961 0.0232 -0.9825 -2.7006 0.3114 6.2322 -14.6505 0.1131 -2.1683 -5.9710 0.0000 0.0000 0.0000 7.8623 -8.1163 8.5306 -0.0237 -0.9943 2.7331 -0.8024 2.2570 -16.3109 -0.1936 -2.8333 7.8151 -5.2306 1.5334 5.2255 -0.5988 1.7524 0.7237 2.1879 0.9252 -2.3211 2.4530 2.2511 -21.8404 -1.9027 2.8494 20.1780 -0.6484 1.2987 10.1022 0.0000 -0.0000 0.0000 -86.9948 -0.2801 46.5065 13.0645 -21.3817 -2.4768 -0.0000 -0.0000 11.5586 16.9344 -25.3626 -7.4307 -7.1250 0.0000 -0.0000 -7.7111 3.8250 7.2466 0.0000 -0.0000 0.0000 87.0259 -0.8929 39.0500 -15.9527 25.4565 -3.6256 0.0000 0.0000 5.1695 -13.4115 -29.7632 6.7506 7.1250 -0.0000 -0.0000 20.1732 -59.2786 -7.2180
-28.3229 17.1116 1.2502 46.0932 83.9908 46.0416 0.0000 0.0000 0.0000 -19.3487 5.2589 12.0954 0.0248 -1.0176 -2.7973 0.2933 6.4988 -14.6407 0.1324 -2.3452 -6.4607 0.0000 0.0000 0.0000 7.7799 -8.1356 8.4863 -0.0243 -1.0059 2.7651 -0.7990 2.2913 -16.2675 -0.1755 -2.6982 7.4397 -5.3512 1.5254 5.1775 -0.5862 1.7393 0.7427 2.2708 0.9185 -2.2775 2.5300 2.2937 -21.8282 -2.0167 2.9101 20.1312 -0.6924 1.3187 10.0879 -0.0000 0.0000 0.0000 -87.0861 -0.2464 46.5606 13.0742 -21.3959 -2.4803 -0.0000 -0.0000 11.7426 17.5081 -25.0898 -7.6189 -7.1250 0.0000 -0.0000 -7.3399 4.0143 6.8656 -0.0000 0.0000 0.0000 87.0602 -0.8133 38.8211 -15.7903 25.2355 -3.5561 0.0000 0.0000 5.5212 -12.8964 -29.9160 6.5145 7.1250 -0.0000 -0.0000 20.8251 -59.3039 -7.4765
-28.3231 17.1133 1.2507 46.4312 83.9670 46.3637 0.0000 0.0000 0.0000 -19.3686 5.3109 12.0578 0.0244 -1.0092 -2.7741 0.2913 6.4820 -14.5954 0.1428 -2.4357 -6.7115 0.0000 0.0000 0.0000 7.7299 -8.1462 8.4982 -0.0248 -1.0174 2.7967 -0.7982 2.2213 -16.2734 -0.1502 -2.4972 6.8820 -5.4521 1.5183 5.1926 -0.5662 1.7246 0.7634 2.3490 0.9116 -2.2669 2.6001 2.3418 -21.8626 -2.1304 2.9808 20.1317 -0.7333 1.3424 10.0992 -0.0000 0.0000 0.0000 -87.1803 -0.2318 46.6154 13.0821 -21.4074 -2.4832 -0.0000 -0.0000 11.7749 15.7916 -25.6222 -6.9726 -7.1250 0.0000 -0.0000 -8.4246 3.7330 7.9461 -0.0000 0.0000 0.0000 87.0231 -0.8172 38.7879 -15.7172 25.1357 -3.5250 0.0000 0.0000 5.5331 -12.5964 -29.9552 6.3667 7.1250 -0.0000 -0.0000 21.1670 -59.2721 -7.5899
-28.3220 17.1139 1.2493 47.7039 84.0092 47.6257 0.0000 0.0000 0.0000 -19.4260 5.2546 12.0172 0.0228 -0.9745 -2.6787 0.3007 6.3910 -14.6450 0.1243 -2.2724 -6.2592 0.0000 0.0000 0.0000 7.6458 -8.2352 8.5280 -0.0244 -1.0090 2.7737 -0.7990 2.0714 -16.3134 -0.1053 -2.0928 5.7623 -5.5072 1.4731 5.2372 -0.5716 1.6578 0.7488 2.3780 0.8800 -2.3028 2.6508 2.3743 -21.8781 -2.2193 3.0325 20.1659 -0.7652 1.3594 10.1182 0.0000 -0.0000 0.0000 -87.2625 -0.1299 46.7051 13.1302 -21.4777 -2.5008 -0.0000 -0.0000 11.5205 14.9128 -25.7793 -6.6067 -7.1250 0.0000 -0.0000 -8.9678 3.7019 8.4764 0.0000 -0.0000 0.0000 86.9652 -0.9778 38.9483 -15.7753 25.2151 -3.5497 0.0000 0.0000 5.3931 -12.5292 -30.0237 6.3449 7.1250 -0.0000 -0.0000 21.2890 -59.3202 -7.6609
-28.3204 17.1137 1.2470 48.5095 84.0450 48.4448 0.0000 0.0000 0.0000 -19.4690 5.2079 11.9912 0.0220 -0.9570 -2.6306 0.3072 6.2772 -14.6323 0.1029 -2.0690 -5.6964 0.0000 0.0000 0.0000 7.5927 -8.3141 8.5184 -0.0243 -1.0062 2.7658 -0.8005 2.0754 -16.3291 -0.0952 -1.9898 5.4775 -5.5317 1.4544 5.2573 -0.5619 1.6291 0.7206 2.4031 0.8672 -2.3418 2.6734 2.3909 -21.9072 -2.3211 3.0759 20.2362 -0.7981 1.3687 10.1522 0.0000 -0.0000 0.0000 -87.3422 0.0108 46.9935 13.2587 -21.6651 -2.5480 -0.0000 -0.0000 10.9293 15.0106 -25.2350 -6.5217 -7.1250 0.0000 -0.0000 -8.8725 4.2349 8.2950 0.0000 -0.0000 0.0000 86.8943 -1.1837 38.9765 -16.0887 25.6408 -3.6843 0.0000 0.0000 4.4499 -11.9595 -31.0232 6.2302 7.1250 -0.0000 -0.0000 22.6715 -60.1078 -8.6200
-28.3193 17.1149 1.2458 49.0870 83.9832 48.9787 0.0000 0.0000 0.0000 -19.5747 5.2420 12.0321 0.0218 -0.9535 -2.6209 0.3074 6.2224 -14.5838 0.1106 -2.1443 -5.9046 0.0000 0.0000 0.0000 7.4575 -8.3988 8.5400 -0.0241 -1.0023 2.7552 -0.7948 2.1561 -16.2516 -0.0985 -2.0235 5.5706 -5.6422 1.4776 5.3011 -0.5652 1.6514 0.7299 2.4587 0.8798 -2.3617 2.6618 2.3870 -21.9195 -2.3733 3.0885 20.2609 -0.8126 1.3672 10.1644 0.0000 -0.0000 0.0000 -87.4926 -0.1398 46.2425 13.4696 -21.9714 -2.6264 -0.0000 -0.0000 8.5315 11.2606 -24.8247 -4.7784 -7.1250 0.0000 -0.0000 -11.1339 5.1276 10.2948 0.0000 -0.0000 0.0000 86.9135 -1.2903 38.8112 -15.9974 25.5171 -3.6448 0.0000 0.0000 4.9327 -12.2979 -30.6630 6.3438 7.1250 -0.0000 -0.0000 22.0275 -59.8566 -8.2275
-28.3190 17.1127 1.2442 49.6549 83.9656 49.5930 0.0000 0.0000 0.0000 -19.6811 5.1102 12.0204 0.0217 -0.9504 -2.6123 0.3076 6.2832 -14.6431 0.1141 -2.1777 -5.9970 0.0000 0.0000 0.0000 7.3771 -8.3976 8.4958 -0.0224 -0.9663 2.6560 -0.7914 2.1584 -16.2156 -0.1148 -2.1844 6.0155 -5.6849 1.4675 5.2163 -0.5841 1.6428 0.7637 2.4663 0.8734 -2.2791 2.6722 2.3957 -22.0202 -2.4129 3.1054 20.3059 -0.8250 1.3698 10.2003 -0.0000 -0.0000 0.0000 -87.5200 -0.2374 46.1439 13.5779 -22.1280 -2.6670 -0.0000 -0.0000 7.4766 7.8737 -25.1333 -3.3615 -7.1250 0.0000 -0.0000 -13.1938 5.1952 12.2823 -0.0000 -0.0000 0.0000 87.0046 -1.2268 38.6062 -15.7899 25.2349 -3.5559 0.0000 0.0000 5.6738 -12.6486 -30.1191 6.4251 7.1250 -0.0000 -0.0000 21.2374 -59.4358 -7.7005
-28.3189 17.1129 1.2433 49.5447 83.9851 49.4855 0.0000 0.0000 0.0000 -19.6772 5.0465 12.0399 0.0217 -0.9509 -2.6137 0.3098 6.3107 -14.6995 0.1083 -2.1222 -5.8434 0.0000 0.0000 0.0000 7.3909 -8.4354 8.4746 -0.0243 -1.0054 2.7638 -0.8077 2.2441 -16.3687 -0.1090 -2.1286 5.8613 -5.6546 1.4620 5.3184 -0.5680 1.6284 0.7213 2.4641 0.8691 -2.3785 2.6058 2.4073 -22.0847 -2.3966 3.1406 20.3721 -0.8024 1.3821 10.2355 0.0000 -0.0000 0.0000 -87.5966 -0.1191 46.1346 13.6412 -22.2194 -2.6909 -0.0000 -0.0000 7.3874 8.1964 -25.0872 -3.4948 -7.1250 0.0000 -0.0000 -12.9984 5.2074 12.0872 0.0000 -0.0000 0.0000 86.9961 -1.3634 38.6041 -15.7988 25.2471 -3.5597 0.0000 0.0000 5.8017 -12.5968 -30.0108 6.3775 7.1250 -0.0000 -0.0000 21.2088 -59.3237 -7.6322
-28.3165 17.1123 1.2419 48.8570 84.1131 48.8703 0.0000 0.0000 0.0000 -19.5322 4.9645 12.0105 0.0217 -0.9500 -2.6111 0.3103 6.3582 -14.7502 0.1125 -2.1621 -5.9540 0.0000 0.0000 0.0000 7.5986 -8.3613 8.4530 -0.0220 -0.9581 2.6336 -0.8047 2.1139 -16.3651 -0.1141 -2.1774 5.9963 -5.5269 1.4170 5.2247 -0.4998 1.5831 0.7346 2.4690 0.8432 -2.3070 2.5272 2.4545 -22.1453 -2.3628 3.2200 20.3290 -0.7650 1.4156 10.2311 -0.0000 0.0000 0.0000 -87.6757 0.0248 46.4940 13.5913 -22.1474 -2.6721 -0.0000 -0.0000 8.4275 9.1023 -26.0164 -4.0198 -7.1250 0.0000 -0.0000 -12.4777 4.2011 11.8192 -0.0000 0.0000 0.0000 86.9116 -1.4162 38.7913 -15.8435 25.3081 -3.5788 0.0000 0.0000 5.7535 -12.5471 -30.0504 6.3593 7.1250 -0.0000 -0.0000 21.2906 -59.3490 -7.6763
